# xmcd
#
# Track frame offsets:
#	150
#	20605
#	47812
#	70855
#	89867
#	111450
#	127785
#	148577
#	170522
#	191080
#	210890
#	232982
#	257725
#	309105
#
# Disc length: 4246 seconds
#
# Revision: 2
# Processed by: cddbd v1.5.2PL0 Copyright (c) Steve Scherf et al.
# Submitted via: audiograbber 1.83.01
#
DISCID=c210940e
DTITLE=Oliver Shanti and Friends - Medicine Power
DYEAR=2000
DGENRE=New Age
TTITLE0=1. Slow Changes
TTITLE1=2. Medicine Power Man
TTITLE2=3. Shamboo Wokantonka
TTITLE3=4. Navajo Prayer Song
TTITLE4=5. White Bear' s Medicine Dance
TTITLE5=6. Eagle Wabun Medicine Dance
TTITLE6=7. Red Indian' s Right to Live
TTITLE7=8. Golden Eagle' s soaring Dance
TTITLE8=9. Choctaw Shadowhouse Song
TTITLE9=10. Mother Earth' s Tartaruga Song
TTITLE10=11. The Mudjekeewis Flute Song
TTITLE11=12. Hinayana Vision
TTITLE12=13. Medicine Energy Pow Wow
TTITLE13=14. Medicine Spirit shine on
EXTD=YEAR: 2000
EXTT0=
EXTT1=
EXTT2=
EXTT3=
EXTT4=
EXTT5=
EXTT6=
EXTT7=
EXTT8=
EXTT9=
EXTT10=
EXTT11=
EXTT12=
EXTT13=
PLAYORDER=
